<?xml version="1.0" ?><svg enable-background="new 0 0 32 32" height="32px" id="svg2" version="1.1" viewBox="0 0 32 32" width="32px" xml:space="preserve" xmlns="http://www.w3.org/2000/svg" xmlns:cc="http://creativecommons.org/ns#" xmlns:dc="http://purl.org/dc/elements/1.1/" xmlns:inkscape="http://www.inkscape.org/namespaces/inkscape" xmlns:rdf="http://www.w3.org/1999/02/22-rdf-syntax-ns#" xmlns:sodipodi="http://sodipodi.sourceforge.net/DTD/sodipodi-0.dtd" xmlns:svg="http://www.w3.org/2000/svg"><g id="background"><rect fill="none" height="32" width="32"/></g><g id="server_x5F_accept"><path d="M30,17.349V12h-2v-2h2V2H2v8h2v2H2v8h2v2H2v8h15.349c1.545,1.248,3.51,1.999,5.651,2c4.971-0.002,8.998-4.029,9-9   C31.999,20.858,31.248,18.894,30,17.349z M14.059,22H6v-2h8.522C14.297,20.638,14.135,21.306,14.059,22z M26,12H6v-2h20V12z M4,6h4   v2H4V6z M4,16h4v2H4V16z M8,28H4v-2h4V28z M23,29.883c-3.801-0.009-6.876-3.084-6.885-6.883c0.009-3.801,3.084-6.876,6.885-6.885   c3.799,0.009,6.874,3.084,6.883,6.885C29.874,26.799,26.799,29.874,23,29.883z"/><polygon points="18,23 20,21 22,23 26,19 28,21 22,27  "/></g></svg>